<svg width="415" height="65" viewBox="0 0 415 65" fill="none" xmlns="http://www.w3.org/2000/svg">
<g clip-path="url(#clip0_36_2192)">
<path d="M29.2324 46.1726L0 34.9182V53.2678L7.073 55.9982L29.5067 64.6397" fill="url(#paint0_linear_36_2192)"/>
<path d="M29.5067 64.6397L51.6662 54.8141L58.3473 51.8586V46.5054V33.274V26.2473L0 3.77759V24.0258L42.3792 40.3497L29.2324 46.1726" fill="url(#paint1_linear_36_2192)"/>
<path d="M9.98253 0L58.3473 18.6335V0H9.98253Z" fill="url(#paint2_linear_36_2192)"/>
<g clip-path="url(#clip1_36_2192)">
<path d="M29.5594 46.43L0 35.1128V53.5647L7.15212 56.3104L29.8368 65" fill="url(#paint3_linear_36_2192)"/>
<path d="M29.8368 65L52.2441 55.1196L59 52.1476V46.7646V33.4595V26.3936L0 3.79863V24.1597L42.8533 40.5746L29.5594 46.43" fill="url(#paint4_linear_36_2192)"/>
<path d="M10.0942 0L59 18.7373V0H10.0942Z" fill="url(#paint5_linear_36_2192)"/>
<g clip-path="url(#clip2_36_2192)">
<path d="M29.4145 46.43L0 35.1128V53.5647L7.11706 56.3104L29.6905 65" fill="url(#paint6_linear_36_2192)"/>
<path d="M29.6905 65L51.988 55.1196L58.7108 52.1476V46.7646V33.4595V26.3936L0 3.79863V24.1597L42.6432 40.5746L29.4145 46.43" fill="url(#paint7_linear_36_2192)"/>
<path d="M10.0447 0L58.7108 18.7373V0H10.0447Z" fill="url(#paint8_linear_36_2192)"/>
</g>
</g>
</g>
<path d="M89.8801 30.752C88.5576 30.752 87.5851 30.6937 86.9627 30.577C86.3404 30.4603 86.0292 30.3242 86.0292 30.1686L87.7796 26.4052C88.2269 26.483 89.1508 26.5608 90.5511 26.6386C91.9514 26.6969 93.7699 26.7261 96.0066 26.7261H98.3113C98.992 26.7261 99.4491 26.6288 99.6825 26.4343C99.9158 26.2399 100.033 25.9578 100.033 25.5883V25.2966C100.033 24.8298 99.9158 24.5089 99.6825 24.3338C99.4491 24.1588 98.992 24.0713 98.3113 24.0713H91.6305C89.6662 24.0713 88.2366 23.7115 87.342 22.9919C86.4473 22.2528 86 21.0567 86 19.4035V18.3532C86 17.4975 86.1556 16.7098 86.4668 15.9902C86.7974 15.2706 87.3517 14.6968 88.1297 14.2689C88.9076 13.8216 89.9773 13.5979 91.3388 13.5979H101.024C102.211 13.5979 103.193 13.666 103.971 13.8021C104.768 13.9383 105.167 14.0842 105.167 14.2398L104.292 17.8573C103.747 17.7989 102.717 17.7406 101.199 17.6822C99.7019 17.6044 97.7959 17.5655 95.4814 17.5655L93.3809 17.5364C92.778 17.5364 92.3501 17.6239 92.0973 17.7989C91.8445 17.9545 91.7083 18.256 91.6889 18.7033V18.9075C91.6889 19.3549 91.825 19.6661 92.0973 19.8411C92.3696 20.0161 92.8072 20.1037 93.4101 20.1037H99.8283C101.073 20.1037 102.133 20.2301 103.008 20.4829C103.883 20.7358 104.554 21.2025 105.021 21.8833C105.488 22.5445 105.721 23.5267 105.721 24.8298V25.88C105.721 27.3387 105.342 28.5154 104.584 29.4101C103.845 30.3047 102.551 30.752 100.704 30.752H89.8801Z" fill="white"/>
<path d="M115.433 30.752C113.372 30.752 111.864 30.295 110.911 29.3809C109.978 28.4473 109.511 26.9692 109.511 24.9465V19.3743C109.511 17.3905 109.978 15.9318 110.911 14.9983C111.845 14.0647 113.352 13.5979 115.433 13.5979H123.952C125.994 13.5979 127.482 14.0647 128.416 14.9983C129.369 15.9318 129.845 17.3905 129.845 19.3743V24.9465C129.845 26.9692 129.369 28.4473 128.416 29.3809C127.463 30.295 125.975 30.752 123.952 30.752H115.433ZM117.446 26.7844H121.968C123.485 26.7844 124.244 26.094 124.244 24.7131V19.6077C124.244 18.2463 123.485 17.5655 121.968 17.5655H117.446C116.668 17.5655 116.085 17.7211 115.696 18.0323C115.307 18.3435 115.112 18.8686 115.112 19.6077V24.7131C115.112 25.4327 115.307 25.9578 115.696 26.2885C116.085 26.6191 116.668 26.7844 117.446 26.7844Z" fill="white"/>
<path d="M139.703 31.0438C137.758 31.0438 136.28 30.5867 135.269 29.6726C134.277 28.7585 133.781 27.2804 133.781 25.2382V13.5979H139.47V24.7131C139.47 25.6272 139.694 26.2399 140.141 26.551C140.588 26.8622 141.142 27.0178 141.804 27.0178H145.567C146.19 27.0178 146.734 26.8622 147.201 26.551C147.668 26.2204 147.901 25.6078 147.901 24.7131V13.5979H153.502V25.2382C153.502 27.2804 153.006 28.7585 152.015 29.6726C151.042 30.5867 149.574 31.0438 147.609 31.0438H139.703Z" fill="white"/>
<path d="M162.916 30.752V17.5364H155.972V13.5688H175.606V17.5364H168.575V30.752H162.916Z" fill="white"/>
<path d="M178.52 30.752V13.5979H184.151V20.1328H193.224V13.5979H198.825V30.752H193.224V24.1005H184.151V30.752H178.52Z" fill="white"/>
<path d="M207.415 30.752L201.172 13.6271H207.386L210.304 23.3711L210.975 25.9092H211.266L211.646 24.2171L214.65 13.6271H221.36L224.54 24.2171L225.065 25.9092H225.357L226.028 23.3711L228.683 13.6271H234.809L234.518 15.3775L228.508 30.752H221.798L218.706 21.329L218.122 18.8784H217.83L217.276 21.329L214.213 30.752H207.415Z" fill="white"/>
<path d="M237.153 30.752V13.5979H255.882V17.5655H242.842V19.987H252.498V24.0421H242.842V26.7553H255.415L257.166 30.4311C257.166 30.5089 256.903 30.5867 256.378 30.6645C255.853 30.7229 254.949 30.752 253.665 30.752H237.153Z" fill="white"/>
<path d="M260.087 30.752L260.379 28.4182V13.5979H265.98V26.7553H276.308L278.058 30.4311C278.058 30.5089 277.795 30.5867 277.27 30.6645C276.745 30.7229 275.841 30.752 274.557 30.752H260.087Z" fill="white"/>
<path d="M280.4 30.752L280.692 28.4182V13.5979H286.293V26.7553H296.621L298.371 30.4311C298.371 30.5089 298.109 30.5867 297.584 30.6645C297.058 30.7229 296.154 30.752 294.87 30.752H280.4Z" fill="white"/>
<path d="M305.392 30.752V15.9318L305.1 13.5979H312.16L317.295 23.8087L322.546 13.5979H329.227V30.752H323.654V20.9205H323.333L322.108 24.0713L319.979 29.0016H314.669L312.452 24.0713L311.256 20.9205H310.964V30.752H305.392Z" fill="#14C79B"/>
<path d="M333.903 30.752V13.5979H352.633V17.5655H339.592V19.987H349.249V24.0421H339.592V26.7553H352.166L353.916 30.4311C353.916 30.5089 353.654 30.5867 353.129 30.6645C352.604 30.7229 351.699 30.752 350.416 30.752H333.903Z" fill="#14C79B"/>
<path d="M357.129 30.752V15.9318L356.838 13.5979H370.374C372.728 13.5979 374.488 14.0647 375.655 14.9983C376.841 15.9318 377.434 17.3905 377.434 19.3743V24.9465C377.434 26.9692 376.851 28.4473 375.684 29.3809C374.517 30.295 372.747 30.752 370.374 30.752H357.129ZM362.818 26.7261H369.499C370.997 26.7261 371.755 26.0356 371.775 24.6548V19.6077C371.775 19.0437 371.609 18.5672 371.279 18.1782C370.948 17.7698 370.355 17.5655 369.499 17.5655H362.818V26.7261Z" fill="#14C79B"/>
<path d="M381.51 30.752V13.5979H387.111V30.752H381.51Z" fill="#14C79B"/>
<path d="M389.666 30.752L398.214 13.5979H405.799L414.318 30.752H408.045L406.616 27.6305H397.397L395.792 30.752H389.666ZM399.001 23.6045H404.982L402.152 17.3905H401.86L399.001 23.6045Z" fill="#14C79B"/>
<path d="M90.0514 49.841H88.9281V46.2327L86.3176 39.159H87.4726L88.5484 42.0679C88.5906 42.1845 88.9123 43.1329 89.5135 44.9133C89.9037 43.6946 90.5735 41.7765 91.5227 39.159H92.6618L90.0514 46.2327V49.841Z" fill="#C8C8C8"/>
<path d="M99.9581 41.5434C99.9581 40.5366 99.436 40.0332 98.3919 40.0332C97.3582 40.0332 96.8414 40.5366 96.8414 41.5434V47.4566C96.8414 48.474 97.3582 48.9827 98.3919 48.9827C99.436 48.9827 99.9581 48.474 99.9581 47.4566V41.5434ZM95.7181 41.5275C95.7181 40.775 95.9449 40.1657 96.3984 39.6994C96.852 39.2331 97.5164 39 98.3919 39C99.2778 39 99.9476 39.2331 100.401 39.6994C100.855 40.1657 101.081 40.775 101.081 41.5275V47.4884C101.081 48.2408 100.855 48.8502 100.401 49.3165C99.9476 49.7722 99.2778 50 98.3919 50C97.5059 50 96.8361 49.7722 96.3826 49.3165C95.9396 48.8502 95.7181 48.2408 95.7181 47.4884V41.5275Z" fill="#C8C8C8"/>
<path d="M109.309 39.159H110.432V47.4884C110.432 48.2408 110.205 48.8502 109.752 49.3165C109.309 49.7722 108.644 50 107.758 50C106.872 50 106.203 49.7722 105.749 49.3165C105.306 48.8502 105.085 48.2408 105.085 47.4884V39.159H106.208V47.4566C106.208 48.474 106.725 48.9827 107.758 48.9827C108.792 48.9827 109.309 48.474 109.309 47.4566V39.159Z" fill="#C8C8C8"/>
<path d="M117.28 45.5491H115.713V49.841H114.59V39.159H117.169C118.013 39.159 118.651 39.3762 119.083 39.8107C119.516 40.2346 119.732 40.8174 119.732 41.5592V43.1329C119.732 44.2775 119.278 45.0193 118.371 45.3584L120.064 49.841H118.83L117.28 45.5491ZM115.713 44.5636H117.122C118.113 44.5636 118.609 44.0814 118.609 43.1171V41.6069C118.609 40.6426 118.113 40.1604 117.122 40.1604H115.713V44.5636Z" fill="#C8C8C8"/>
<path d="M132.95 41.6228C132.95 40.6479 132.449 40.1604 131.447 40.1604H130.055V45.1676H131.447C132.449 45.1676 132.95 44.6855 132.95 43.7211V41.6228ZM128.932 39.159H131.51C132.344 39.159 132.977 39.3762 133.409 39.8107C133.852 40.2452 134.073 40.828 134.073 41.5592V43.7688C134.073 44.5106 133.857 45.0987 133.425 45.5332C132.992 45.9571 132.354 46.1691 131.51 46.1691H130.055V49.841H128.932V39.159Z" fill="#C8C8C8"/>
<path d="M137.941 39.159H139.064V48.8555H142.292V49.841H137.941V39.159Z" fill="#C8C8C8"/>
<path d="M149.959 49.841L149.31 46.8526H146.463L145.814 49.841H144.691L147.095 39.159H148.678L151.082 49.841H149.959ZM146.668 45.8671H149.089L147.871 40.2558L146.668 45.8671Z" fill="#C8C8C8"/>
<path d="M158.811 39.159V40.1604H156.754V49.841H155.615V40.1604H153.558V39.159H158.811Z" fill="#C8C8C8"/>
<path d="M162.095 39.159H166.572V40.1604H163.218V44.1662H166.398V45.1835H163.218V49.841H162.095V39.159Z" fill="#C8C8C8"/>
<path d="M174.105 41.5434C174.105 40.5366 173.583 40.0332 172.538 40.0332C171.505 40.0332 170.988 40.5366 170.988 41.5434V47.4566C170.988 48.474 171.505 48.9827 172.538 48.9827C173.583 48.9827 174.105 48.474 174.105 47.4566V41.5434ZM169.865 41.5275C169.865 40.775 170.091 40.1657 170.545 39.6994C170.998 39.2331 171.663 39 172.538 39C173.424 39 174.094 39.2331 174.548 39.6994C175.001 40.1657 175.228 40.775 175.228 41.5275V47.4884C175.228 48.2408 175.001 48.8502 174.548 49.3165C174.094 49.7722 173.424 50 172.538 50C171.652 50 170.983 49.7722 170.529 49.3165C170.086 48.8502 169.865 48.2408 169.865 47.4884V41.5275Z" fill="#C8C8C8"/>
<path d="M182 45.5491H180.434V49.841H179.31V39.159H181.889C182.733 39.159 183.371 39.3762 183.803 39.8107C184.236 40.2346 184.452 40.8174 184.452 41.5592V43.1329C184.452 44.2775 183.999 45.0193 183.091 45.3584L184.784 49.841H183.55L182 45.5491ZM180.434 44.5636H181.842C182.833 44.5636 183.329 44.0814 183.329 43.1171V41.6069C183.329 40.6426 182.833 40.1604 181.842 40.1604H180.434V44.5636Z" fill="#C8C8C8"/>
<path d="M196.081 39.159V49.841H195.005V44.2139C195.005 43.1224 195.037 42.0679 195.1 41.0506L192.933 46.9957H191.746L189.547 41.0506C189.621 42.0361 189.658 43.0853 189.658 44.198V49.841H188.598V39.159H189.927L192.331 45.8512L194.736 39.159H196.081Z" fill="#C8C8C8"/>
<path d="M200.421 49.9364C199.968 49.9364 199.741 49.698 199.741 49.2211C199.741 48.7336 199.968 48.4899 200.421 48.4899C200.885 48.4899 201.117 48.7336 201.117 49.2211C201.117 49.698 200.885 49.9364 200.421 49.9364Z" fill="#C8C8C8"/>
<path d="M212.537 49.841H211.414V46.2327L208.803 39.159H209.958L211.034 42.0679C211.076 42.1845 211.398 43.1329 211.999 44.9133C212.389 43.6946 213.059 41.7765 214.008 39.159H215.148L212.537 46.2327V49.841Z" fill="#C8C8C8"/>
<path d="M222.444 41.5434C222.444 40.5366 221.922 40.0332 220.878 40.0332C219.844 40.0332 219.327 40.5366 219.327 41.5434V47.4566C219.327 48.474 219.844 48.9827 220.878 48.9827C221.922 48.9827 222.444 48.474 222.444 47.4566V41.5434ZM218.204 41.5275C218.204 40.775 218.431 40.1657 218.884 39.6994C219.338 39.2331 220.002 39 220.878 39C221.764 39 222.433 39.2331 222.887 39.6994C223.34 40.1657 223.567 40.775 223.567 41.5275V47.4884C223.567 48.2408 223.34 48.8502 222.887 49.3165C222.433 49.7722 221.764 50 220.878 50C219.992 50 219.322 49.7722 218.868 49.3165C218.425 48.8502 218.204 48.2408 218.204 47.4884V41.5275Z" fill="#C8C8C8"/>
<path d="M231.795 39.159H232.918V47.4884C232.918 48.2408 232.691 48.8502 232.238 49.3165C231.795 49.7722 231.13 50 230.244 50C229.358 50 228.688 49.7722 228.235 49.3165C227.792 48.8502 227.57 48.2408 227.57 47.4884V39.159H228.694V47.4566C228.694 48.474 229.21 48.9827 230.244 48.9827C231.278 48.9827 231.795 48.474 231.795 47.4566V39.159Z" fill="#C8C8C8"/>
<path d="M239.765 45.5491H238.199V49.841H237.076V39.159H239.655C240.499 39.159 241.137 39.3762 241.569 39.8107C242.002 40.2346 242.218 40.8174 242.218 41.5592V43.1329C242.218 44.2775 241.764 45.0193 240.857 45.3584L242.55 49.841H241.316L239.765 45.5491ZM238.199 44.5636H239.607C240.599 44.5636 241.094 44.0814 241.094 43.1171V41.6069C241.094 40.6426 240.599 40.1604 239.607 40.1604H238.199V44.5636Z" fill="#C8C8C8"/>
<path d="M255.863 49.841L255.214 46.8526H252.367L251.718 49.841H250.595L252.999 39.159H254.582L256.986 49.841H255.863ZM252.572 45.8671H254.993L253.775 40.2558L252.572 45.8671Z" fill="#C8C8C8"/>
<path d="M264.556 39.159H265.68V47.4884C265.68 48.2408 265.453 48.8502 264.999 49.3165C264.556 49.7722 263.892 50 263.006 50C262.12 50 261.45 49.7722 260.997 49.3165C260.554 48.8502 260.332 48.2408 260.332 47.4884V39.159H261.455V47.4566C261.455 48.474 261.972 48.9827 263.006 48.9827C264.039 48.9827 264.556 48.474 264.556 47.4566V39.159Z" fill="#C8C8C8"/>
<path d="M274.062 41.5751C274.062 40.6214 273.561 40.1445 272.559 40.1445H270.961V48.8396H272.559C273.561 48.8396 274.062 48.3521 274.062 47.3772V41.5751ZM269.838 39.159H272.622C273.466 39.159 274.104 39.3762 274.536 39.8107C274.969 40.2452 275.185 40.828 275.185 41.5592V47.409C275.185 48.1614 274.974 48.7548 274.552 49.1893C274.13 49.6238 273.498 49.841 272.654 49.841H269.838V39.159Z" fill="#C8C8C8"/>
<path d="M279.249 39.159H280.372V49.841H279.249V39.159Z" fill="#C8C8C8"/>
<path d="M284.612 39.159H289.216V40.1604H285.735V43.9595H288.773V44.961H285.735V48.8396H289.216V49.841H284.612V39.159Z" fill="#C8C8C8"/>
<path d="M297.671 48.0289L297.561 44.5159V39.159H298.684V49.841H297.387L295.203 44.3092C295.119 44.0867 294.702 42.9793 293.953 40.987L294.048 44.4841V49.841H292.957V39.159H294.254C295.931 43.4403 297.07 46.3969 297.671 48.0289Z" fill="#C8C8C8"/>
<path d="M302.766 41.3367C302.766 39.8319 303.715 39.0795 305.613 39.0795C306.225 39.0795 306.837 39.1643 307.449 39.3338V40.3829C306.826 40.2028 306.204 40.1127 305.582 40.1127C304.959 40.1127 304.522 40.224 304.269 40.4465C304.016 40.6585 303.889 40.9764 303.889 41.4003V47.6156C303.889 48.0289 304.016 48.3468 304.269 48.5694C304.532 48.7813 304.986 48.8873 305.629 48.8873C306.283 48.8873 306.9 48.8025 307.48 48.6329V49.6662C306.953 49.8357 306.331 49.9205 305.613 49.9205C303.715 49.9205 302.766 49.1681 302.766 47.6633V41.3367Z" fill="#C8C8C8"/>
<path d="M311.207 39.159H315.811V40.1604H312.33V43.9595H315.368V44.961H312.33V48.8396H315.811V49.841H311.207V39.159Z" fill="#C8C8C8"/>
<path d="M319.647 49.9364C319.193 49.9364 318.967 49.698 318.967 49.2211C318.967 48.7336 319.193 48.4899 319.647 48.4899C320.111 48.4899 320.343 48.7336 320.343 49.2211C320.343 49.698 320.111 49.9364 319.647 49.9364Z" fill="#C8C8C8"/>
<path d="M331.763 49.841H330.64V46.2327L328.029 39.159H329.184L330.26 42.0679C330.302 42.1845 330.624 43.1329 331.225 44.9133C331.615 43.6946 332.285 41.7765 333.234 39.159H334.373L331.763 46.2327V49.841Z" fill="#C8C8C8"/>
<path d="M341.67 41.5434C341.67 40.5366 341.148 40.0332 340.103 40.0332C339.07 40.0332 338.553 40.5366 338.553 41.5434V47.4566C338.553 48.474 339.07 48.9827 340.103 48.9827C341.148 48.9827 341.67 48.474 341.67 47.4566V41.5434ZM337.43 41.5275C337.43 40.775 337.656 40.1657 338.11 39.6994C338.563 39.2331 339.228 39 340.103 39C340.989 39 341.659 39.2331 342.113 39.6994C342.566 40.1657 342.793 40.775 342.793 41.5275V47.4884C342.793 48.2408 342.566 48.8502 342.113 49.3165C341.659 49.7722 340.989 50 340.103 50C339.217 50 338.548 49.7722 338.094 49.3165C337.651 48.8502 337.43 48.2408 337.43 47.4884V41.5275Z" fill="#C8C8C8"/>
<path d="M351.02 39.159H352.144V47.4884C352.144 48.2408 351.917 48.8502 351.463 49.3165C351.02 49.7722 350.356 50 349.47 50C348.584 50 347.914 49.7722 347.461 49.3165C347.018 48.8502 346.796 48.2408 346.796 47.4884V39.159H347.919V47.4566C347.919 48.474 348.436 48.9827 349.47 48.9827C350.504 48.9827 351.02 48.474 351.02 47.4566V39.159Z" fill="#C8C8C8"/>
<path d="M358.991 45.5491H357.425V49.841H356.302V39.159H358.881C359.724 39.159 360.362 39.3762 360.795 39.8107C361.227 40.2346 361.444 40.8174 361.444 41.5592V43.1329C361.444 44.2775 360.99 45.0193 360.083 45.3584L361.776 49.841H360.542L358.991 45.5491ZM357.425 44.5636H358.833C359.824 44.5636 360.32 44.0814 360.32 43.1171V41.6069C360.32 40.6426 359.824 40.1604 358.833 40.1604H357.425V44.5636Z" fill="#C8C8C8"/>
<path d="M369.994 41.3208C369.994 40.6214 370.227 40.0756 370.691 39.6835C371.155 39.2808 371.803 39.0795 372.637 39.0795C373.48 39.0795 374.192 39.1696 374.772 39.3497V40.4306C374.224 40.2293 373.554 40.1286 372.763 40.1286C371.677 40.1286 371.134 40.5419 371.134 41.3685V42.1315C371.134 42.5024 371.202 42.7938 371.339 43.0058C371.487 43.2177 371.73 43.4191 372.067 43.6098L373.902 44.6431C374.757 45.1093 375.184 45.8141 375.184 46.7572V47.6156C375.184 48.3468 374.936 48.9138 374.44 49.3165C373.944 49.7192 373.227 49.9205 372.289 49.9205C371.36 49.9205 370.622 49.8145 370.074 49.6026V48.5217C370.696 48.7548 371.403 48.8714 372.194 48.8714C373.438 48.8714 374.06 48.4316 374.06 47.552V46.8844C374.06 46.5347 373.997 46.2592 373.871 46.0578C373.744 45.8565 373.517 45.6657 373.19 45.4855L371.371 44.4841C370.453 43.986 369.994 43.2442 369.994 42.2587V41.3208Z" fill="#C8C8C8"/>
<path d="M383.137 39.159V40.1604H381.08V49.841H379.941V40.1604H377.884V39.159H383.137Z" fill="#C8C8C8"/>
<path d="M390.503 41.5434C390.503 40.5366 389.981 40.0332 388.937 40.0332C387.903 40.0332 387.387 40.5366 387.387 41.5434V47.4566C387.387 48.474 387.903 48.9827 388.937 48.9827C389.981 48.9827 390.503 48.474 390.503 47.4566V41.5434ZM386.263 41.5275C386.263 40.775 386.49 40.1657 386.944 39.6994C387.397 39.2331 388.062 39 388.937 39C389.823 39 390.493 39.2331 390.946 39.6994C391.4 40.1657 391.627 40.775 391.627 41.5275V47.4884C391.627 48.2408 391.4 48.8502 390.946 49.3165C390.493 49.7722 389.823 50 388.937 50C388.051 50 387.381 49.7722 386.928 49.3165C386.485 48.8502 386.263 48.2408 386.263 47.4884V41.5275Z" fill="#C8C8C8"/>
<path d="M398.398 45.5491H396.832V49.841H395.709V39.159H398.288C399.131 39.159 399.77 39.3762 400.202 39.8107C400.634 40.2346 400.851 40.8174 400.851 41.5592V43.1329C400.851 44.2775 400.397 45.0193 399.49 45.3584L401.183 49.841H399.949L398.398 45.5491ZM396.832 44.5636H398.24C399.232 44.5636 399.727 44.0814 399.727 43.1171V41.6069C399.727 40.6426 399.232 40.1604 398.24 40.1604H396.832V44.5636Z" fill="#C8C8C8"/>
<path d="M407.702 49.841H406.578V46.2327L403.968 39.159H405.123L406.199 42.0679C406.241 42.1845 406.563 43.1329 407.164 44.9133C407.554 43.6946 408.224 41.7765 409.173 39.159H410.312L407.702 46.2327V49.841Z" fill="#C8C8C8"/>
<path d="M413.622 49.9364C413.168 49.9364 412.941 49.698 412.941 49.2211C412.941 48.7336 413.168 48.4899 413.622 48.4899C414.086 48.4899 414.318 48.7336 414.318 49.2211C414.318 49.698 414.086 49.9364 413.622 49.9364Z" fill="#C8C8C8"/>
<defs>
<linearGradient id="paint0_linear_36_2192" x1="8.42367e-07" y1="49.607" x2="29.5067" y2="49.9532" gradientUnits="userSpaceOnUse">
<stop stop-color="#231F20"/>
<stop offset="1" stop-color="#4A4A4A"/>
</linearGradient>
<linearGradient id="paint1_linear_36_2192" x1="29.1737" y1="64.6397" x2="29.1737" y2="3.77759" gradientUnits="userSpaceOnUse">
<stop stop-color="#171717"/>
<stop offset="1" stop-color="#5C5C5C"/>
</linearGradient>
<linearGradient id="paint2_linear_36_2192" x1="58.3473" y1="9.31672" x2="9.98253" y2="9.31672" gradientUnits="userSpaceOnUse">
<stop stop-color="#259378"/>
<stop offset="1" stop-color="#00FFC0"/>
</linearGradient>
<linearGradient id="paint3_linear_36_2192" x1="8.5179e-07" y1="49.8835" x2="29.8367" y2="50.2356" gradientUnits="userSpaceOnUse">
<stop stop-color="#231F20"/>
<stop offset="1" stop-color="#4A4A4A"/>
</linearGradient>
<linearGradient id="paint4_linear_36_2192" x1="29.5" y1="65" x2="29.5" y2="3.79863" gradientUnits="userSpaceOnUse">
<stop stop-color="#171717"/>
<stop offset="1" stop-color="#5C5C5C"/>
</linearGradient>
<linearGradient id="paint5_linear_36_2192" x1="59" y1="9.36866" x2="10.0942" y2="9.36866" gradientUnits="userSpaceOnUse">
<stop stop-color="#259378"/>
<stop offset="1" stop-color="#00FFC0"/>
</linearGradient>
<linearGradient id="paint6_linear_36_2192" x1="8.47614e-07" y1="49.8835" x2="29.6905" y2="50.2321" gradientUnits="userSpaceOnUse">
<stop stop-color="white"/>
<stop offset="1" stop-color="#DFDFDF"/>
</linearGradient>
<linearGradient id="paint7_linear_36_2192" x1="29.3554" y1="65" x2="29.3554" y2="3.79863" gradientUnits="userSpaceOnUse">
<stop stop-color="white"/>
<stop offset="1" stop-color="#DFDFDF"/>
</linearGradient>
<linearGradient id="paint8_linear_36_2192" x1="58.7108" y1="9.36866" x2="10.0447" y2="9.36866" gradientUnits="userSpaceOnUse">
<stop stop-color="#259378"/>
<stop offset="1" stop-color="#00FFC0"/>
</linearGradient>
<clipPath id="clip0_36_2192">
<rect width="58.3473" height="64.6397" fill="white"/>
</clipPath>
<clipPath id="clip1_36_2192">
<rect width="59" height="65" fill="white"/>
</clipPath>
<clipPath id="clip2_36_2192">
<rect width="58.7108" height="65" fill="white"/>
</clipPath>
</defs>
</svg>
